<svg width="151" height="151" viewBox="0 0 151 151" fill="none" xmlns="http://www.w3.org/2000/svg">
<rect x="2.12305" y="32.2397" width="147" height="87" rx="10.5" fill="white" stroke="#1D1D1D" stroke-width="3"/>
<mask id="mask0_15_3036" style="mask-type:alpha" maskUnits="userSpaceOnUse" x="19" y="65" width="113" height="22">
<path d="M19.373 65.1177H131.873V86.3622H19.373V65.1177Z" fill="white"/>
</mask>
<g mask="url(#mask0_15_3036)">
<path fill-rule="evenodd" clip-rule="evenodd" d="M79.862 72.3042C78.0632 72.3042 76.6305 72.9994 75.7181 74.3146L75.5904 74.4985L75.4655 74.3129C74.5819 72.9989 73.2065 72.3042 71.4892 72.3042C69.8456 72.3042 68.508 72.942 67.6204 74.1492L67.5005 74.2977L66.7637 72.6405L62.6327 72.6349L63.7414 75.1279V86.0258H67.7599V78.2948C67.7599 76.6337 68.6255 75.6415 70.0757 75.6415C71.5084 75.6415 72.3634 76.6337 72.3634 78.2948V86.0258H76.3819V78.2948C76.3819 76.6337 77.2475 75.6415 78.6971 75.6415C80.1298 75.6415 80.9854 76.6337 80.9854 78.2948V86.0258H85.0033V77.7334C85.0033 74.4349 82.9856 72.3042 79.862 72.3042V72.3042ZM96.8192 77.9449L96.7809 77.7582C96.4693 76.2394 95.346 75.3332 93.7749 75.3332C92.187 75.3332 91.053 76.2394 90.7419 77.7576L90.7037 77.9449H96.8192V77.9449ZM100.303 77.4707V80.8339H90.7954L90.8561 81.0347C91.1621 82.0405 91.8872 82.7391 92.9531 83.085C93.8357 83.3438 95.0192 83.332 95.9051 83.058C96.7095 82.8089 97.1831 82.5405 97.1831 82.5405L99.2773 84.9199C97.9475 85.8244 96.1565 86.3622 94.4679 86.3622C90 86.3622 86.9979 83.5373 86.9979 79.3332C86.9979 75.2607 89.8481 72.3042 93.7749 72.3042C97.1696 72.3042 99.5479 74.1863 100.303 77.4707V77.4707ZM57.4627 79.3326C57.4627 77.4055 56.1037 76.0065 54.2323 76.0065C52.3603 76.0065 51.0013 77.4055 51.0013 79.3332C51.0013 81.2609 52.3603 82.6598 54.2323 82.6598C56.1037 82.6598 57.4627 81.2609 57.4627 79.3332V79.3326ZM61.4807 79.3326C61.4807 81.321 60.7044 83.1317 59.2959 84.4311C57.9454 85.6765 56.147 86.3622 54.2323 86.3622C52.317 86.3622 50.5187 85.6765 49.1681 84.4311C47.759 83.1317 46.9834 81.321 46.9834 79.3332C46.9834 77.3447 47.7596 75.534 49.1681 74.2347C50.5187 72.9899 52.317 72.3042 54.2323 72.3042C56.147 72.3042 57.9448 72.9899 59.2959 74.2347C60.705 75.534 61.4807 77.3453 61.4807 79.3332V79.3326ZM42.2139 69.3297H38.1954V72.6411H36.2829V75.979H38.1954V81.6068C38.1954 84.7045 39.6422 86.0264 43.0329 86.0264H44.9584V82.6845L43.8086 82.6665C42.7207 82.6665 42.2139 82.0889 42.2139 80.848V75.9779H45.0124L46.4833 72.64H42.2139V69.3291V69.3297ZM29.8524 79.1925C29.7669 77.3436 28.4085 76.0065 26.622 76.0065C24.75 76.0065 23.391 77.4055 23.391 79.3332C23.391 81.2609 24.75 82.6598 26.622 82.6598C28.4096 82.6598 29.768 81.3227 29.8524 79.4805V79.1925ZM33.8704 83.1143L34.6545 86.0258H31.0354L30.5218 84.1611L30.3356 84.3625C29.1431 85.6523 27.5287 86.3622 25.7906 86.3622C24.0997 86.3622 22.5101 85.6787 21.3154 84.4379C20.0627 83.1374 19.373 81.3244 19.373 79.3332C19.373 77.3419 20.0627 75.529 21.3154 74.2285C22.5101 72.9876 24.0997 72.3042 25.79 72.3042C27.4477 72.3042 28.994 72.9454 30.1449 74.1104L30.407 74.3759V72.6405H33.8704V83.1143ZM131.873 86.1782H127.365L124.791 81.8599C123.07 83.0468 121.281 83.6442 119.432 83.6442C119.359 83.6442 119.286 83.6436 119.213 83.6414C117.209 83.5907 115.416 82.8285 113.888 81.7902L111.273 86.1782H106.764L119.319 65.1177L124.158 73.2244C124.158 73.2244 123.564 73.7397 122.831 74.2381C122.298 74.6003 121.088 75.3771 120.043 73.8792L119.319 72.6805L115.886 78.4394C116.938 79.1835 118.108 79.7072 119.319 79.7359C121.389 79.7843 123.493 78.4214 125.593 75.6797H130.288C129.453 77.0219 128.594 78.1958 127.713 79.2004L131.873 86.1777V86.1782Z" fill="#1D1D1D"/>
</g>
</svg>
