<svg width="151" height="151" viewBox="0 0 151 151" fill="none" xmlns="http://www.w3.org/2000/svg">
<rect x="2.12305" y="32.2397" width="147" height="87" rx="10.5" fill="white" stroke="#1D1D1D" stroke-width="3"/>
<path fill-rule="evenodd" clip-rule="evenodd" d="M44.11 64.7052C42.6439 63.2624 40.6326 62.5399 38.6003 62.7262H30.9968C30.4872 62.7363 30.0561 63.112 29.9683 63.6223L26.8829 83.3751C26.8499 83.5618 26.9008 83.7537 27.0217 83.8983C27.1426 84.0428 27.3207 84.1248 27.5073 84.1218H31.1805C31.6337 84.1128 32.0316 83.8131 32.1722 83.3751L33.0171 77.9981C33.1048 77.4878 33.536 77.1121 34.0455 77.102H36.4331C38.5657 77.3414 40.7009 76.6757 42.3349 75.2622C43.9688 73.8486 44.9566 71.8123 45.065 69.634C45.4696 67.9281 45.1207 66.1277 44.11 64.7052ZM39.4454 69.8958C39.0413 72.6963 36.9476 72.6963 34.9274 72.6963H33.8255L34.6335 67.5061C34.6517 67.1841 34.9045 66.9271 35.2213 66.9086H35.7355C37.0946 66.9086 38.3802 66.9086 39.0781 67.6928C39.5187 68.3342 39.6535 69.1426 39.4454 69.8958ZM61.2269 69.896H57.5537C57.2356 69.8938 56.9667 70.135 56.9293 70.4561V71.5016L56.6722 71.1282C55.559 69.9521 53.9694 69.3721 52.3746 69.5599C48.221 69.6578 44.766 72.8363 44.2569 77.0279C43.8711 79.0425 44.3673 81.128 45.6159 82.7409C46.7766 84.0601 48.4702 84.7625 50.2074 84.6452C52.1001 84.6628 53.9178 83.894 55.2396 82.5168V83.5623C55.2067 83.7491 55.2576 83.941 55.3785 84.0855C55.4993 84.2301 55.6775 84.3121 55.8641 84.3091H59.1332C59.6428 84.299 60.0739 83.9234 60.1617 83.413L62.1085 70.6801C62.2734 70.4324 62.2458 70.1011 62.0422 69.8851C61.8385 69.6691 61.5142 69.627 61.2636 69.784L61.2269 69.896ZM56.1949 77.0282C56.0023 79.1786 54.2046 80.8103 52.081 80.7621C51.1648 80.8141 50.2743 80.4438 49.6567 79.754C49.0906 79.0137 48.8755 78.0569 49.069 77.1402C49.2773 75.0129 51.0432 73.3957 53.1462 73.4062C54.0623 73.3543 54.9528 73.7246 55.5705 74.4144C56.1403 75.153 56.368 76.1061 56.1949 77.0282ZM80.5842 69.7837H76.9111C76.556 69.786 76.2254 69.9681 76.0295 70.2691L70.9973 77.7371L68.8668 70.2691C68.7353 69.8032 68.3152 69.4829 67.8384 69.485H64.1652C63.9596 69.4838 63.7666 69.5857 63.6491 69.7572C63.5317 69.9288 63.5049 70.1482 63.5775 70.3438L67.5812 82.4045L63.9081 87.8561C63.7689 88.0506 63.7497 88.3083 63.8586 88.5218C63.9675 88.7353 64.1858 88.8679 64.4223 88.8643H68.0955C68.4437 88.8704 68.7729 88.7031 68.977 88.4162L81.0985 70.4932C81.1428 70.1545 80.9155 69.841 80.5842 69.7837ZM98.1791 64.7052C96.713 63.2624 94.7016 62.5399 92.6693 62.7262H85.0659C84.5563 62.7363 84.1252 63.112 84.0374 63.6223L80.9887 83.3751C80.9557 83.5618 81.0067 83.7537 81.1275 83.8983C81.2484 84.0428 81.4265 84.1248 81.6131 84.1218H85.5067C85.873 84.1261 86.1864 83.8553 86.2413 83.4871L87.1229 77.8488C87.2106 77.3384 87.6418 76.9627 88.1514 76.9526H90.5389C92.6715 77.192 94.8068 76.5264 96.4407 75.1128C98.0746 73.6992 99.0624 71.663 99.1708 69.4847C99.5206 67.8206 99.1602 66.0839 98.1791 64.7052ZM93.514 70.0084C93.1099 72.8089 91.0162 72.8089 88.996 72.8089H87.8573L88.6654 67.6187C88.7028 67.2975 88.9717 67.0563 89.2898 67.0586H89.8041C91.1631 67.0586 92.4488 67.0586 93.1467 67.8427C93.557 68.4401 93.7035 69.1845 93.5507 69.8964L93.514 70.0084ZM115.296 70.0078H111.623C111.305 70.0055 111.036 70.2467 110.998 70.5679V71.6134L110.741 71.24C109.628 70.0639 108.039 69.4838 106.444 69.6717C102.29 69.7696 98.8351 72.9481 98.326 77.1397C97.9403 79.1543 98.4364 81.2398 99.6851 82.8526C100.846 84.1719 102.539 84.8743 104.277 84.757C106.169 84.7745 107.987 84.0058 109.309 82.6286V83.6741C109.276 83.8609 109.327 84.0528 109.448 84.1973C109.569 84.3419 109.747 84.4239 109.933 84.4209H113.202C113.712 84.4108 114.143 84.0351 114.231 83.5248L116.031 70.5305C116.068 70.33 116.008 70.1235 115.87 69.9755C115.732 69.8275 115.532 69.7562 115.333 69.7837L115.296 70.0078ZM110.264 77.0282C110.071 79.1786 108.274 80.8103 106.15 80.7621C105.234 80.8141 104.343 80.4438 103.726 79.754C103.16 79.0137 102.945 78.0569 103.138 77.1402C103.346 75.0129 105.112 73.3957 107.215 73.4062C108.131 73.3543 109.022 73.7246 109.64 74.4144C110.214 75.1508 110.442 76.106 110.264 77.0282ZM123.744 62.6148H120.071C119.753 62.6125 119.484 62.8537 119.447 63.1749L116.508 83.3756C116.475 83.5624 116.526 83.7543 116.647 83.8988C116.768 84.0434 116.946 84.1254 117.133 84.1224H120.255C120.765 84.1123 121.196 83.7367 121.283 83.2263L124.369 63.3242C124.39 63.1433 124.334 62.962 124.214 62.8263C124.095 62.6905 123.924 62.6135 123.744 62.6148Z" fill="#1D1D1D"/>
</svg>
